<svg width="451" height="87" viewBox="0 0 451 87" fill="none" xmlns="http://www.w3.org/2000/svg">
<path d="M314.762 85.9997C324.652 85.9997 332.663 78.3047 332.663 68.8131C332.663 59.3208 324.652 51.626 314.762 51.626C304.872 51.626 296.86 59.3208 296.86 68.8131C296.86 78.3047 304.872 85.9997 314.762 85.9997Z" stroke="#76C1F5" stroke-linecap="round" stroke-linejoin="round"/>
<path d="M307.81 53.3003C310.025 56.4794 310.58 60.1729 310.696 64.0042C314.68 63.9304 316.394 64.576 318.989 66.366C321.707 62.8701 325.653 60.6109 329.565 59.1119M302.574 56.5998C302.59 59.3544 303.068 62.0132 304.219 64.5336C302.651 63.428 300.976 62.425 298.437 62.2454M297.733 64.0957C298.722 67.8767 300.829 67.9264 302.651 68.9399C299.556 73.4478 303.478 78.5303 302.682 81.5971M331.789 63.145C329.413 66.2483 326.732 69.0437 323.174 70.9317C326.261 70.6655 330.253 72.3824 329.983 73.1004C328.647 76.6263 324.408 75.7489 321.829 75.3035L321.351 78.0536C320.934 79.2155 321.374 79.9029 321.884 80.5573L324.625 83.4821" stroke="#76C1F5" stroke-linecap="round" stroke-linejoin="round"/>
<path d="M320.314 74.9142C321.112 71.6062 318.1 68.0702 313.595 67.0161C309.082 65.9621 304.775 67.7898 303.978 71.0971C303.181 74.4051 306.194 77.941 310.698 78.9951C315.211 80.0492 319.518 78.2222 320.314 74.9142Z" stroke="#76C1F5" stroke-linecap="round" stroke-linejoin="round"/>
<path d="M307.807 70.1269C308.334 69.4846 308.351 68.7504 307.862 68.4874C307.361 68.2246 306.535 68.5324 306.009 69.1754C305.482 69.8177 305.454 70.5519 305.955 70.8149C306.444 71.0777 307.28 70.7699 307.807 70.1269Z" stroke="#76C1F5" stroke-linecap="round" stroke-linejoin="round"/>
<path d="M318.569 73.2177C318.818 72.5337 318.679 71.8833 318.261 71.765C317.844 71.6472 317.31 72.1067 317.069 72.7906C316.82 73.4752 316.959 74.1255 317.376 74.2433C317.793 74.3611 318.328 73.9016 318.569 73.2177Z" stroke="#76C1F5" stroke-linecap="round" stroke-linejoin="round"/>
<path d="M314.207 59.1709C315.328 58.7581 316.69 58.8106 317.437 57.2938C318.182 55.7772 318.113 53.9145 314.763 55.6304C314.12 54.8314 313.348 53.1384 312.089 54.9416C310.839 56.7449 312.967 57.9394 314.207 59.1709Z" stroke="#76C1F5" stroke-linecap="round" stroke-linejoin="round"/>
<path d="M314.38 23.6363C321.856 23.6363 327.915 18.569 327.915 12.3182C327.915 6.06725 321.856 1 314.38 1C306.904 1 300.845 6.06725 300.845 12.3182C300.845 18.569 306.904 23.6363 314.38 23.6363Z" stroke="#76C1F5" stroke-linecap="round" stroke-linejoin="round"/>
<path d="M308.592 2.67725C310.295 4.70825 310.727 7.06805 310.813 9.51595C313.877 9.46865 315.2 9.88095 317.19 11.0246C319.286 8.79125 322.321 7.34785 325.332 6.39015M304.567 4.78525C304.575 6.54515 304.946 8.24385 305.828 9.85385C304.63 9.14755 303.336 8.50685 301.386 8.39215M300.845 9.57415C301.602 11.9899 303.227 12.0215 304.622 12.6693C302.245 15.549 305.256 18.7966 304.652 20.7557M327.041 8.96705C325.207 10.9497 323.149 12.7356 320.417 13.9414C322.785 13.7717 325.858 14.8686 325.649 15.3272C324.627 17.58 321.361 17.0194 319.38 16.7349L319.008 18.4918C318.691 19.2339 319.032 19.6732 319.419 20.0911L321.532 21.96" stroke="#76C1F5" stroke-linecap="round" stroke-linejoin="round"/>
<path d="M318.202 16.5247C318.832 14.3194 316.46 11.9621 312.897 11.2595C309.334 10.5567 305.935 11.7748 305.306 13.9801C304.674 16.1854 307.055 18.5427 310.618 19.2454C314.174 19.9481 317.571 18.73 318.202 16.5247Z" stroke="#76C1F5" stroke-linecap="round" stroke-linejoin="round"/>
<path d="M308.42 13.893C308.774 13.4646 308.79 12.9754 308.458 12.8C308.127 12.6247 307.574 12.8298 307.22 13.2583C306.873 13.6867 306.857 14.1761 307.189 14.3513C307.52 14.5267 308.073 14.3214 308.42 13.893Z" stroke="#76C1F5" stroke-linecap="round" stroke-linejoin="round"/>
<path d="M316.5 15.3944C316.619 14.9381 316.552 14.5046 316.342 14.4259C316.137 14.3473 315.869 14.6534 315.744 15.1097C315.625 15.5659 315.692 15.9995 315.902 16.078C316.108 16.1567 316.376 15.8506 316.5 15.3944Z" stroke="#76C1F5" stroke-linecap="round" stroke-linejoin="round"/>
<path d="M344.28 54.4147C351.757 54.4147 357.816 49.3474 357.816 43.0966C357.816 36.8456 351.757 31.7783 344.28 31.7783C336.804 31.7783 330.746 36.8456 330.746 43.0966C330.746 49.3474 336.804 54.4147 344.28 54.4147Z" stroke="#76C1F5" stroke-linecap="round" stroke-linejoin="round"/>
<path d="M338.493 33.4561C340.195 35.487 340.628 37.8469 340.713 40.2948C343.777 40.2475 345.102 40.6598 347.091 41.8034C349.188 39.57 352.222 38.1267 355.232 37.169M334.468 35.5641C334.476 37.3239 334.847 39.0226 335.73 40.6327C334.53 39.9263 333.238 39.2857 331.287 39.171M330.746 40.3529C331.504 42.7688 333.129 42.8004 334.522 43.4482C332.146 46.3279 335.157 49.5755 334.552 51.5345M356.943 39.7459C355.109 41.7285 353.05 43.5144 350.318 44.7203C352.686 44.5505 355.758 45.6474 355.549 46.106C354.528 48.3588 351.263 47.7982 349.281 47.5138L348.91 49.2706C348.592 50.0127 348.933 50.452 349.32 50.87L351.432 52.7389" stroke="#76C1F5" stroke-linecap="round" stroke-linejoin="round"/>
<path d="M348.102 47.3041C348.733 45.0987 346.361 42.7414 342.797 42.0388C339.233 41.3361 335.836 42.5542 335.206 44.7594C334.574 46.9647 336.956 49.322 340.519 50.0248C344.074 50.7274 347.472 49.5093 348.102 47.3041Z" stroke="#76C1F5" stroke-linecap="round" stroke-linejoin="round"/>
<path d="M338.32 44.6714C338.675 44.243 338.69 43.7536 338.359 43.5782C338.028 43.403 337.475 43.6082 337.12 44.0366C336.773 44.465 336.758 44.9545 337.089 45.1297C337.42 45.3051 337.973 45.0998 338.32 44.6714Z" stroke="#76C1F5" stroke-linecap="round" stroke-linejoin="round"/>
<path d="M346.4 46.1726C346.519 45.7164 346.452 45.2829 346.242 45.2042C346.036 45.1256 345.768 45.4317 345.643 45.888C345.524 46.3441 345.591 46.7778 345.801 46.8563C346.007 46.9349 346.275 46.6289 346.4 46.1726Z" stroke="#76C1F5" stroke-linecap="round" stroke-linejoin="round"/>
<path d="M402.275 58.6364C409.752 58.6364 415.811 53.5691 415.811 47.3183C415.811 41.0673 409.752 36 402.275 36C394.799 36 388.741 41.0673 388.741 47.3183C388.741 53.5691 394.799 58.6364 402.275 58.6364Z" stroke="#76C1F5" stroke-linecap="round" stroke-linejoin="round"/>
<path d="M396.488 37.6777C398.19 39.7086 398.623 42.0685 398.708 44.5164C401.772 44.4691 403.097 44.8814 405.086 46.025C407.183 43.7916 410.217 42.3483 413.228 41.3906M392.463 39.7857C392.471 41.5455 392.842 43.2442 393.725 44.8543C392.525 44.1479 391.233 43.5073 389.282 43.3926M388.741 44.5745C389.499 46.9904 391.124 47.022 392.517 47.6698C390.141 50.5495 393.152 53.7971 392.547 55.7561M414.938 43.9675C413.104 45.9501 411.045 47.736 408.313 48.9419C410.681 48.7721 413.753 49.869 413.544 50.3276C412.523 52.5804 409.258 52.0198 407.276 51.7354L406.905 53.4922C406.587 54.2343 406.928 54.6736 407.315 55.0916L409.428 56.9605" stroke="#76C1F5" stroke-linecap="round" stroke-linejoin="round"/>
<path d="M406.097 51.5258C406.728 49.3204 404.356 46.9631 400.792 46.2605C397.229 45.5578 393.831 46.7759 393.201 48.9811C392.569 51.1864 394.951 53.5437 398.514 54.2465C402.069 54.9491 405.467 53.731 406.097 51.5258Z" stroke="#76C1F5" stroke-linecap="round" stroke-linejoin="round"/>
<path d="M396.315 48.8931C396.67 48.4647 396.685 47.9753 396.354 47.7999C396.023 47.6247 395.47 47.8299 395.115 48.2583C394.768 48.6867 394.753 49.1762 395.084 49.3514C395.415 49.5268 395.968 49.3215 396.315 48.8931Z" stroke="#76C1F5" stroke-linecap="round" stroke-linejoin="round"/>
<path d="M404.395 50.3943C404.514 49.9381 404.447 49.5046 404.237 49.4259C404.031 49.3473 403.763 49.6534 403.638 50.1097C403.519 50.5658 403.586 50.9995 403.796 51.078C404.002 51.1566 404.27 50.8506 404.395 50.3943Z" stroke="#76C1F5" stroke-linecap="round" stroke-linejoin="round"/>
<path d="M13.2244 25.6363C19.977 25.6363 25.4503 20.569 25.4503 14.3182C25.4503 8.06736 19.977 3 13.2244 3C6.47282 3 0.999512 8.06736 0.999512 14.3182C0.999512 20.569 6.47282 25.6363 13.2244 25.6363Z" stroke="#76C1F5" stroke-linecap="round" stroke-linejoin="round"/>
<path d="M8.58929 3.83838C10.0662 5.95769 10.4388 8.42005 10.5156 10.9745C13.17 10.925 14.3135 11.3553 16.0406 12.5486C17.8562 10.2182 20.4834 8.71205 23.0942 7.71271M5.09819 6.038C5.10928 7.87441 5.43022 9.64699 6.19602 11.3271C5.15136 10.5899 4.03504 9.92143 2.34348 9.80175M1.87207 11.035C2.53235 13.5559 3.93783 13.5889 5.15066 14.2648C3.09011 17.2697 5.70028 20.6585 5.17275 22.7029M24.5763 10.4017C22.9895 12.4704 21.2041 14.3341 18.8344 15.5923C20.8905 15.4152 23.5509 16.5597 23.3731 17.0384C22.4825 19.389 19.6541 18.804 17.9358 18.5073L17.6157 20.3405C17.3405 21.1149 17.6356 21.5733 17.9728 22.0094L19.8015 23.9596" stroke="#76C1F5" stroke-linecap="round" stroke-linejoin="round"/>
<path d="M16.628 18.5247C17.1743 16.3195 15.1152 13.9622 12.0282 13.2595C8.94182 12.5568 5.99684 13.7748 5.45062 15.9802C4.9043 18.1854 6.96334 20.5428 10.0496 21.2454C13.1358 21.9482 16.0808 20.7301 16.628 18.5247Z" stroke="#76C1F5" stroke-linecap="round" stroke-linejoin="round"/>
<path d="M15.7844 17.3934C15.9068 16.9371 15.8374 16.5036 15.6299 16.4249C15.422 16.3463 15.154 16.6524 15.0316 17.1087C14.9092 17.5649 14.9786 17.9985 15.1861 18.0771C15.3941 18.1557 15.6621 17.8496 15.7844 17.3934Z" stroke="#76C1F5" stroke-linecap="round" stroke-linejoin="round"/>
<path d="M247.575 86.0001C255.528 86.0001 261.979 80.1824 261.979 73.0052C261.979 65.828 255.528 60.0103 247.575 60.0103C239.616 60.0103 233.163 65.828 233.163 73.0052C233.163 80.1824 239.616 86.0001 247.575 86.0001Z" stroke="#76C1F5" stroke-linecap="round" stroke-linejoin="round"/>
<path d="M241.43 61.6855C243.251 63.9817 243.711 66.6492 243.804 69.4167C247.065 69.3627 248.474 69.8289 250.599 71.1219C252.84 68.597 256.071 66.9656 259.286 65.8827M237.132 64.0682C237.148 66.058 237.545 67.9783 238.487 69.7984C237.195 69.0001 235.826 68.2756 233.739 68.1458M233.163 69.4819C233.973 72.2133 235.709 72.2487 237.195 72.9811C234.657 76.2361 237.872 79.9078 237.226 82.1225M261.107 68.7957C259.153 71.0368 256.958 73.0556 254.039 74.4188C256.569 74.2272 259.845 75.4669 259.627 75.9857C258.531 78.5325 255.051 77.8981 252.933 77.5766L252.544 79.5629C252.202 80.4017 252.568 80.8984 252.98 81.371L255.23 83.4835" stroke="#76C1F5" stroke-linecap="round" stroke-linejoin="round"/>
<path d="M251.398 77.7572C252.028 75.3314 249.651 72.7384 246.09 71.9657C242.53 71.1922 239.125 72.5321 238.501 74.9579C237.87 77.3836 240.24 79.9766 243.809 80.7501C247.368 81.5228 250.765 80.1829 251.398 77.7572Z" stroke="#76C1F5" stroke-linecap="round" stroke-linejoin="round"/>
<path d="M241.615 74.5799C241.966 74.151 241.988 73.6616 241.653 73.4864C241.325 73.3112 240.767 73.5163 240.417 73.9446C240.067 74.3736 240.052 74.8628 240.38 75.038C240.715 75.2132 241.266 75.0081 241.615 74.5799Z" stroke="#76C1F5" stroke-linecap="round" stroke-linejoin="round"/>
<path d="M250.505 76.5705C250.748 75.8862 250.603 75.2358 250.19 75.1174C249.776 75.0001 249.246 75.4592 248.994 76.1436C248.751 76.8279 248.895 77.4783 249.309 77.5957C249.723 77.7141 250.253 77.2549 250.505 76.5705Z" stroke="#76C1F5" stroke-linecap="round" stroke-linejoin="round"/>
<path d="M247.167 65.8775C247.968 65.5334 248.942 65.577 249.476 64.3137C250.01 63.0496 249.964 61.4971 247.564 62.9271C247.107 62.2612 246.559 60.8503 245.66 62.3531C244.761 63.8556 246.284 64.8513 247.167 65.8775Z" stroke="#76C1F5" stroke-linecap="round" stroke-linejoin="round"/>
<path d="M71.6001 85.1609C81.2438 85.1609 89.0664 77.466 89.0664 67.9743C89.0664 58.482 81.2438 50.7871 71.6001 50.7871C61.9556 50.7871 54.1367 58.482 54.1367 67.9743C54.1367 77.466 61.9556 85.1609 71.6001 85.1609Z" stroke="#76C1F5" stroke-linecap="round" stroke-linejoin="round"/>
<path d="M64.8373 52.4634C66.9957 55.6424 67.5396 59.3359 67.6517 63.1673C71.5323 63.0935 73.2031 63.7384 75.7278 65.5292C78.382 62.0331 82.2203 59.7739 86.0346 58.275M59.7343 55.7628C59.7508 58.5175 60.2196 61.1764 61.339 63.6968C59.8119 62.5908 58.1807 61.588 55.708 61.4085M55.0181 63.2587C55.9841 67.0398 58.0386 67.0895 59.8103 68.103C56.7987 72.6108 60.6138 77.6935 59.8435 80.7602M88.2013 62.3083C85.8841 65.4114 83.2735 68.2068 79.8107 70.094C82.8147 69.8287 86.7041 71.5455 86.4484 72.2635C85.1468 75.7894 81.0092 74.912 78.4979 74.4667L78.0299 77.2168C77.6282 78.3779 78.0593 79.0659 78.5519 79.7204L81.2274 82.6452" stroke="#76C1F5" stroke-linecap="round" stroke-linejoin="round"/>
<path d="M76.7176 74.0743C77.5161 70.7664 74.507 67.2304 69.9965 66.1764C65.4857 65.1223 61.1819 66.9493 60.3827 70.2572C59.5843 73.5652 62.594 77.1012 67.104 78.1553C71.6146 79.2093 75.9192 77.3823 76.7176 74.0743Z" stroke="#76C1F5" stroke-linecap="round" stroke-linejoin="round"/>
<path d="M64.3463 69.288C64.6971 68.6457 64.7129 67.9114 64.3815 67.6486C64.0501 67.3858 63.497 67.6935 63.1463 68.3365C62.7955 68.9788 62.7798 69.7131 63.1112 69.9759C63.4424 70.2388 63.9956 69.931 64.3463 69.288Z" stroke="#76C1F5" stroke-linecap="round" stroke-linejoin="round"/>
<path d="M74.9845 72.8715C75.2293 71.9585 75.0907 71.0912 74.6751 70.9343C74.2595 70.7772 73.7236 71.389 73.4789 72.302C73.234 73.2141 73.3726 74.0814 73.7881 74.2383C74.2038 74.3962 74.7389 73.7836 74.9845 72.8715Z" stroke="#76C1F5" stroke-linecap="round" stroke-linejoin="round"/>
<path d="M71.125 58.3306C72.086 57.9178 73.2539 57.9703 73.8941 56.4535C74.5342 54.9368 74.4768 53.0742 71.6037 54.7901C71.0506 53.9911 70.3881 52.298 69.3134 54.1013C68.2377 55.9046 70.0622 57.099 71.125 58.3306Z" stroke="#76C1F5" stroke-linecap="round" stroke-linejoin="round"/>
<path d="M141.901 44.9192C151.791 44.9192 159.803 37.2243 159.803 27.7322C159.803 18.2402 151.791 10.5454 141.901 10.5454C132.011 10.5454 124 18.2402 124 27.7322C124 37.2243 132.011 44.9192 141.901 44.9192Z" stroke="#76C1F5" stroke-linecap="round" stroke-linejoin="round"/>
<path d="M134.69 12.2207C136.848 15.3997 137.39 19.0932 137.503 22.9248C141.385 22.8506 143.055 23.4959 145.582 25.2861C148.231 21.7905 152.074 19.5313 155.889 18.0323M129.59 15.5202C129.604 18.2747 130.07 20.9336 131.191 23.4537C129.664 22.348 128.032 21.3453 125.565 21.1657M124.872 23.0157C125.835 26.7971 127.889 26.8465 129.664 27.8604C126.655 32.3677 130.469 37.4509 129.694 40.5174M158.055 22.0657C155.738 25.1689 153.128 27.9641 149.659 29.8516C152.669 29.5859 156.559 31.3027 156.295 32.0206C154.994 35.5466 150.863 34.6692 148.351 34.224L147.884 36.9739C147.478 38.1354 147.914 38.8231 148.403 39.4771L151.075 42.4025" stroke="#76C1F5" stroke-linecap="round" stroke-linejoin="round"/>
<path d="M146.578 34.1216C147.333 31.0343 144.488 27.734 140.212 26.7502C135.938 25.7665 131.857 27.4718 131.102 30.5591C130.347 33.6466 133.2 36.9469 137.469 37.9306C141.744 38.9143 145.823 37.209 146.578 34.1216Z" stroke="#76C1F5" stroke-linecap="round" stroke-linejoin="round"/>
<path d="M134.95 29.884C135.477 29.2414 135.495 28.5072 135.005 28.2444C134.505 27.9814 133.679 28.2892 133.152 28.9318C132.625 29.5744 132.598 30.3086 133.097 30.5716C133.598 30.8345 134.423 30.5267 134.95 29.884Z" stroke="#76C1F5" stroke-linecap="round" stroke-linejoin="round"/>
<path d="M145.708 32.976C145.957 32.2917 145.818 31.6413 145.399 31.5233C144.981 31.4054 144.446 31.8646 144.205 32.549C143.963 33.2334 144.095 33.8837 144.512 34.0016C144.93 34.1195 145.466 33.6604 145.708 32.976Z" stroke="#76C1F5" stroke-linecap="round" stroke-linejoin="round"/>
<path d="M140.985 18.0909C141.945 17.6781 143.113 17.7306 143.753 16.2139C144.393 14.6971 144.333 12.8345 141.461 14.5504C140.91 13.7514 140.248 12.0582 139.17 13.8616C138.099 15.665 139.921 16.8593 140.985 18.0909Z" stroke="#76C1F5" stroke-linecap="round" stroke-linejoin="round"/>
<path d="M42.2252 48.0858C44.9808 46.905 48.3329 47.0551 50.1667 42.7167C52.0038 38.3781 51.8316 33.0502 43.5903 37.9584C42.0116 35.6729 40.1107 30.8297 37.0171 35.9882C33.9426 41.1467 39.1731 44.563 42.2252 48.0858Z" stroke="#76C1F5" stroke-linecap="round" stroke-linejoin="round"/>
<path d="M65.0508 39.4522C67.2552 38.5075 69.9368 38.6276 71.4039 35.1569C72.8735 31.6859 72.7358 27.4236 66.1428 31.3502C64.8798 29.5218 63.3591 25.6473 60.8842 29.7741C58.4246 33.9009 62.609 36.6339 65.0508 39.4522Z" stroke="#76C1F5" stroke-linecap="round" stroke-linejoin="round"/>
<path d="M423.699 34.5113C425.904 33.5666 428.585 33.6867 430.052 30.216C431.522 26.745 431.384 22.4827 424.791 26.4093C423.528 24.5809 422.008 20.7064 419.533 24.8332C417.073 28.96 421.257 31.693 423.699 34.5113Z" stroke="#76C1F5" stroke-linecap="round" stroke-linejoin="round"/>
<path d="M94.6655 53.8416C95.7678 53.3692 97.1086 53.4293 97.8421 51.6939C98.5769 49.9585 98.5081 47.8273 95.2116 49.7906C94.5801 48.8764 93.8197 46.9391 92.5822 49.0025C91.3524 51.0659 93.4447 52.4324 94.6655 53.8416Z" stroke="#76C1F5" stroke-linecap="round" stroke-linejoin="round"/>
<path d="M423.241 80.7557C424.343 80.2833 425.684 80.3434 426.417 78.608C427.152 76.8726 427.083 74.7414 423.787 76.7047C423.155 75.7905 422.395 73.8532 421.157 75.9166C419.928 77.98 422.02 79.3465 423.241 80.7557Z" stroke="#76C1F5" stroke-linecap="round" stroke-linejoin="round"/>
<path d="M445.229 24.7557C446.331 24.2833 447.672 24.3434 448.406 22.608C449.14 20.8726 449.072 18.7414 445.775 20.7047C445.144 19.7905 444.383 17.8532 443.146 19.9166C441.916 21.98 444.008 23.3465 445.229 24.7557Z" stroke="#76C1F5" stroke-linecap="round" stroke-linejoin="round"/>
<path d="M86.6475 18.3484C87.7497 17.876 89.0905 17.9361 89.824 16.2008C90.5589 14.4653 90.49 12.3341 87.1935 14.2974C86.562 13.3832 85.8016 11.446 84.5641 13.5093C83.3344 15.5727 85.4266 16.9393 86.6475 18.3484Z" stroke="#76C1F5" stroke-linecap="round" stroke-linejoin="round"/>
<path d="M43.4365 21.7556C44.5388 21.2832 45.8796 21.3433 46.6131 19.608C47.3479 17.8725 47.2791 15.7413 43.9826 17.7046C43.3511 16.7904 42.5907 14.8532 41.3532 16.9165C40.1234 18.9799 42.2157 20.3465 43.4365 21.7556Z" stroke="#76C1F5" stroke-linecap="round" stroke-linejoin="round"/>
<path d="M175.849 28.9002C176.95 28.4278 178.291 28.4879 179.025 26.7525C179.76 25.017 179.691 22.8859 176.394 24.8492C175.763 23.935 175.002 21.9977 173.765 24.0611C172.535 26.1245 174.627 27.491 175.849 28.9002Z" stroke="#76C1F5" stroke-linecap="round" stroke-linejoin="round"/>
<path d="M138.388 59.7557C139.489 59.2833 140.83 59.3434 141.564 57.608C142.299 55.8725 142.23 53.7414 138.933 55.7047C138.302 54.7905 137.541 52.8532 136.304 54.9166C135.074 56.98 137.166 58.3465 138.388 59.7557Z" stroke="#76C1F5" stroke-linecap="round" stroke-linejoin="round"/>
<path d="M173.37 74.7557C174.472 74.2833 175.813 74.3434 176.546 72.608C177.281 70.8725 177.212 68.7414 173.916 70.7047C173.284 69.7905 172.524 67.8532 171.286 69.9166C170.057 71.98 172.149 73.3465 173.37 74.7557Z" stroke="#76C1F5" stroke-linecap="round" stroke-linejoin="round"/>
<path d="M236.986 53.8416C238.088 53.3692 239.429 53.4293 240.162 51.6939C240.897 49.9585 240.828 47.8273 237.532 49.7906C236.9 48.8764 236.14 46.9391 234.903 49.0025C233.672 51.0659 235.764 52.4324 236.986 53.8416Z" stroke="#76C1F5" stroke-linecap="round" stroke-linejoin="round"/>
<path d="M301.131 49.0452C302.233 48.5728 303.574 48.6329 304.308 46.8975C305.042 45.1621 304.973 43.0309 301.677 44.9942C301.045 44.08 300.285 42.1427 299.047 44.2061C297.818 46.2695 299.91 47.636 301.131 49.0452Z" stroke="#76C1F5" stroke-linecap="round" stroke-linejoin="round"/>
<path d="M351.244 24.1043C352.346 23.6319 353.687 23.692 354.42 21.9566C355.156 20.2211 355.087 18.09 351.79 20.0533C351.159 19.1391 350.398 17.2018 349.161 19.2652C347.93 21.3286 350.023 22.6951 351.244 24.1043Z" stroke="#76C1F5" stroke-linecap="round" stroke-linejoin="round"/>
<path d="M251.329 19.7557C252.431 19.2833 253.772 19.3434 254.505 17.608C255.24 15.8725 255.172 13.7414 251.875 15.7046C251.244 14.7905 250.483 12.8532 249.246 14.9166C248.016 16.98 250.109 18.3465 251.329 19.7557Z" stroke="#76C1F5" stroke-linecap="round" stroke-linejoin="round"/>
<path d="M33.5273 78.782C34.6295 78.3096 35.9703 78.3697 36.7039 76.6344C37.4387 74.8989 37.3698 72.7677 34.0733 74.731C33.4419 73.8168 32.6815 71.8795 31.4441 73.9429C30.2142 76.0063 32.3064 77.3729 33.5273 78.782Z" stroke="#76C1F5" stroke-linecap="round" stroke-linejoin="round"/>
<path d="M221.803 29.8292C221.803 33.9794 218.105 37.3746 213.507 37.3746C208.909 37.3746 205.21 33.9794 205.21 29.8292C205.21 25.679 208.909 22.2837 213.507 22.2837C218.105 22.2837 221.803 25.679 221.803 29.8292Z" stroke="#76C1F5"/>
<path d="M124.01 49.9483C124.01 54.0986 120.313 57.4937 115.715 57.4937C111.108 57.4937 107.418 54.0986 107.418 49.9483C107.418 45.7981 111.108 42.4028 115.715 42.4028C120.313 42.4028 124.01 45.7981 124.01 49.9483Z" stroke="#76C1F5"/>
<path d="M410.33 75.5455C410.33 79.6958 406.633 83.0909 402.035 83.0909C397.427 83.0909 393.738 79.6958 393.738 75.5455C393.738 71.3953 397.427 68 402.035 68C406.633 68 410.33 71.3953 410.33 75.5455Z" stroke="#76C1F5"/>
<path d="M192.989 12.6399C192.989 15.6493 190.447 18.0894 187.316 18.0894C184.177 18.0894 181.636 15.6493 181.636 12.6399C181.636 9.63061 184.177 7.19043 187.316 7.19043C190.447 7.19043 192.989 9.63061 192.989 12.6399Z" stroke="#76C1F5"/>
<path d="M33.5828 25.5454C33.5828 29.6956 29.8866 33.0909 25.2865 33.0909C20.6867 33.0909 16.9912 29.6956 16.9912 25.5454C16.9912 21.3951 20.6867 18 25.2865 18C29.8866 18 33.5828 21.3951 33.5828 25.5454Z" stroke="#76C1F5"/>
<path d="M286.085 71.8684C286.085 75.1314 283.323 77.7373 279.976 77.7373C276.62 77.7373 273.859 75.1314 273.859 71.8684C273.859 68.6053 276.62 66 279.976 66C283.323 66 286.085 68.6053 286.085 71.8684Z" stroke="#76C1F5"/>
<path d="M285.085 13.8684C285.085 17.1314 282.323 19.7373 278.976 19.7373C275.621 19.7373 272.859 17.1314 272.859 13.8684C272.859 10.6053 275.621 8 278.976 8C282.323 8 285.085 10.6053 285.085 13.8684Z" stroke="#76C1F5"/>
<path d="M351.992 68.3426C351.992 71.6056 349.23 74.2115 345.883 74.2115C342.528 74.2115 339.766 71.6056 339.766 68.3426C339.766 65.0795 342.528 62.4741 345.883 62.4741C349.23 62.4741 351.992 65.0795 351.992 68.3426Z" stroke="#76C1F5"/>
<path d="M450 71.8685C450 75.1315 447.239 77.7374 443.891 77.7374C440.536 77.7374 437.774 75.1315 437.774 71.8685C437.774 68.6054 440.536 66 443.891 66C447.239 66 450 68.6054 450 71.8685Z" stroke="#76C1F5"/>
<path d="M381.977 37.8685C381.977 41.1315 379.215 43.7374 375.868 43.7374C372.513 43.7374 369.751 41.1315 369.751 37.8685C369.751 34.6054 372.513 32 375.868 32C379.215 32 381.977 34.6054 381.977 37.8685Z" stroke="#76C1F5"/>
<path d="M192.996 44.082C192.996 48.2322 189.298 51.6275 184.701 51.6275C180.102 51.6275 176.404 48.2322 176.404 44.082C176.404 39.9317 180.102 36.5366 184.701 36.5366C189.298 36.5366 192.996 39.9317 192.996 44.082Z" stroke="#76C1F5"/>
<path d="M117.892 14.7359C117.892 18.8861 114.203 22.2813 109.597 22.2813C104.998 22.2813 101.301 18.8861 101.301 14.7359C101.301 10.5857 104.998 7.19043 109.597 7.19043C114.203 7.19043 117.892 10.5857 117.892 14.7359Z" stroke="#76C1F5"/>
<path d="M154.567 78.4533C154.567 81.6317 151.311 84.3224 147.139 84.3224C142.968 84.3224 139.72 81.6317 139.72 78.4533C139.72 75.2757 142.968 72.585 147.139 72.585C151.311 72.585 154.567 75.2757 154.567 78.4533Z" stroke="#76C1F5"/>
<path d="M273.449 46.4797C273.449 52.2426 268.201 56.9596 261.656 56.9596C255.119 56.9596 249.871 52.2426 249.871 46.4797C249.871 40.7169 255.119 36 261.656 36C268.201 36 273.449 40.7169 273.449 46.4797Z" stroke="#76C1F5"/>
<path d="M412.319 20.4797C412.319 26.2426 407.071 30.9596 400.526 30.9596C393.99 30.9596 388.741 26.2426 388.741 20.4797C388.741 14.7169 393.99 10 400.526 10C407.071 10 412.319 14.7169 412.319 20.4797Z" stroke="#76C1F5"/>
<path d="M20.968 73.4234C20.968 77.5735 17.2718 80.9688 12.6726 80.9688C8.07276 80.9688 4.37646 77.5735 4.37646 73.4234C4.37646 69.2726 8.07276 65.8779 12.6726 65.8779C17.2718 65.8779 20.968 69.2726 20.968 73.4234Z" stroke="#76C1F5"/>
<path d="M436.375 10.5455C436.375 14.6956 432.679 18.0909 428.08 18.0909C423.48 18.0909 419.784 14.6956 419.784 10.5455C419.784 6.3947 423.48 3 428.08 3C432.679 3 436.375 6.3947 436.375 10.5455Z" stroke="#76C1F5"/>
<path d="M8.99561 54.4331C9.68916 51.7332 20.1449 50.4835 22.33 50.2845C26.7428 49.8826 31.6818 65.8913 28.9966 69.2098C21.1556 78.9017 19.6076 62.2844 25.024 60.2014M85.9861 72.6075C93.1482 77.035 104.947 84.5369 114.391 82.7222C122.063 81.2458 126.11 67.554 116.487 67.2336C112.959 67.1166 111.696 69.3094 112.651 72.2121C114.003 76.2975 127.268 75.3 130.65 74.5828C142.635 72.041 153.665 66.394 165.578 63.4807C168.937 62.6606 172.755 62.81 176.13 63.4412C181.343 64.4171 186.336 66.1655 191.24 67.9452C194.186 69.0135 201.436 70.7135 203.524 73.279C204.559 74.5472 204.326 79.9833 202.609 80.7461C198.757 82.4641 190.762 82.7516 190.649 77.5852C190.551 73.1038 192.979 68.0034 196.451 64.7053C201.129 60.2536 212.806 56.765 219.508 55.8949C228.692 54.7027 236.235 54.5279 237.457 45.5434C237.813 42.9148 239.804 38.5018 236.494 36.8118C230.716 33.8572 224.751 33.9297 221.886 39.1823C218.059 46.1833 234.009 45.251 238.322 44.3186C245.419 42.7826 250.146 34.3562 255.123 30.3322C259.995 26.403 266.395 23.4735 273.072 22.786C282.136 21.8523 297.504 19.3274 297.504 29.8581C297.504 31.4821 293.653 33.7208 293.393 31.6755C293.191 30.1109 292.924 27.1201 293.758 25.6702C295.343 22.9314 298.548 21.2914 302.069 21.0476C306.511 20.7402 308.672 21.9419 312.297 24.0898C315.819 26.1771 321.832 28.2933 323.303 32.1102C324.72 35.7804 324.396 38.2748 327.916 40.9208C333.509 45.1306 340.719 45.2109 346.821 47.3213" stroke="#76C1F5" stroke-linecap="round" stroke-dasharray="6 6"/>
<path d="M285.715 49.1104C284.687 49.1104 283.731 48.8578 282.835 48.3524C281.945 47.8471 281.226 47.1434 280.674 46.2416L277.652 41.2528L278.373 40.5127L282.084 43.0288V34.815H282.879V44.5874L279.049 41.9504L281.349 45.7735C281.813 46.562 282.43 47.1793 283.209 47.6253C283.988 48.0708 284.827 48.2936 285.715 48.2936C287.133 48.2936 288.34 47.7871 289.331 46.7742C290.332 45.7602 290.831 44.5204 290.831 43.0549V35.2233H291.625V43.0558C291.625 44.7418 291.051 46.1724 289.905 47.3476C288.759 48.5228 287.361 49.1104 285.715 49.1104ZM285.004 40.5332V33.1812H285.796V40.5332H285.004ZM287.921 40.5332V33.9981H288.721V40.5332H287.921Z" fill="#76C1F5"/>
<path d="M166.995 60.8477C165.967 60.8477 165.011 60.5951 164.114 60.0897C163.225 59.5844 162.505 58.8807 161.953 57.9789L158.933 52.9901L159.654 52.25L163.357 54.7661V46.5523H164.159V56.3247L160.33 53.6877L162.631 57.5108C163.092 58.2993 163.711 58.9166 164.49 59.3626C165.269 59.8081 166.099 60.0309 166.995 60.0309C168.407 60.0309 169.619 59.5244 170.612 58.5115C171.611 57.4975 172.111 56.2577 172.111 54.7922V46.9606H172.904V54.7931C172.904 56.4791 172.332 57.9097 171.185 59.0849C170.038 60.2601 168.643 60.8477 166.995 60.8477ZM166.283 52.2704V44.9185H167.076V52.2704H166.283ZM169.2 52.2704V45.7354H169.994V52.2704H169.2Z" fill="#76C1F5"/>
<path d="M97.0169 42.9292C95.9885 42.9292 95.033 42.6766 94.1354 42.1712C93.2469 41.6659 92.5263 40.9622 91.9745 40.0604L88.9541 35.0716L89.6757 34.3315L93.3788 36.8476V28.6338H94.1804V38.4062L90.3514 35.7692L92.6522 39.5923C93.114 40.3808 93.7326 40.9981 94.5112 41.4441C95.2908 41.8896 96.1204 42.1124 97.0169 42.1124C98.4282 42.1124 99.6406 41.6059 100.633 40.593C101.633 39.579 102.132 38.3392 102.132 36.8737V29.0421H102.926V36.8746C102.926 38.5606 102.353 39.9912 101.207 41.1664C100.059 42.3416 98.6641 42.9292 97.0169 42.9292ZM96.3043 34.3519V27H97.0979V34.3519H96.3043ZM99.2218 34.3519V27.8169H100.015V34.3519H99.2218Z" fill="#76C1F5"/>
<path d="M43.0448 68.9292C42.0163 68.9292 41.0608 68.6766 40.1633 68.1712C39.2747 67.6659 38.5541 66.9622 38.0024 66.0604L34.9819 61.0716L35.7036 60.3315L39.4067 62.8476V54.6338H40.2082V64.4062L36.3792 61.7692L38.68 65.5923C39.1418 66.3808 39.7605 66.9981 40.5391 67.4441C41.3187 67.8896 42.1482 68.1124 43.0448 68.1124C44.4561 68.1124 45.6684 67.6059 46.6609 66.593C47.6604 65.579 48.1601 64.3392 48.1601 62.8737V55.0421H48.9537V62.8746C48.9537 64.5606 48.381 65.9912 47.2346 67.1664C46.0872 68.3416 44.6919 68.9292 43.0448 68.9292ZM42.3321 60.3519V53H43.1257V60.3519H42.3321ZM45.2496 60.3519V53.8169H46.0432V60.3519H45.2496Z" fill="#76C1F5"/>
<path d="M430.845 58.9292C429.817 58.9292 428.861 58.6766 427.964 58.1712C427.075 57.6659 426.354 56.9622 425.803 56.0604L422.782 51.0716L423.504 50.3315L427.207 52.8476V44.6338H428.009V54.4062L424.18 51.7692L426.48 55.5923C426.942 56.3808 427.561 56.9981 428.339 57.4441C429.119 57.8896 429.949 58.1124 430.845 58.1124C432.256 58.1124 433.469 57.6059 434.461 56.593C435.461 55.579 435.96 54.3392 435.96 52.8737V45.0421H436.754V52.8746C436.754 54.5606 436.181 55.9912 435.035 57.1664C433.888 58.3416 432.492 58.9292 430.845 58.9292ZM430.132 50.3519V43H430.926V50.3519H430.132ZM433.05 50.3519V43.8169H433.844V50.3519H433.05Z" fill="#76C1F5"/>
<path d="M226.368 21.444C225.34 21.444 224.384 21.2047 223.487 20.7258C222.597 20.247 221.878 19.5804 221.326 18.7261L218.305 13.9999L219.025 13.2987L222.737 15.6824V7.90082H223.531V17.1589L219.702 14.6608L222.003 18.2826C222.466 19.0297 223.083 19.6145 223.863 20.037C224.64 20.4591 225.472 20.6701 226.368 20.6701C227.787 20.6701 228.992 20.1902 229.985 19.2307C230.984 18.27 231.484 17.0954 231.484 15.7071V8.28777H232.277V15.7079C232.277 17.3052 231.704 18.6605 230.558 19.774C229.411 20.8872 228.015 21.444 226.368 21.444ZM225.655 13.318V6.35303H226.448V13.318H225.655ZM228.573 13.318V7.12692H229.374V13.318H228.573Z" fill="#76C1F5"/>
<path d="M376.814 21.091C375.787 21.091 374.83 20.8517 373.934 20.3728C373.044 19.894 372.325 19.2274 371.773 18.3731L368.751 13.6469L369.472 12.9457L373.184 15.3294V7.54779H373.978V16.8059L370.149 14.3078L372.45 17.9296C372.912 18.6767 373.53 19.2615 374.31 19.684C375.087 20.1061 375.919 20.3171 376.814 20.3171C378.234 20.3171 379.439 19.8372 380.431 18.8777C381.431 17.917 381.931 16.7424 381.931 15.3541V7.93474H382.724V15.3549C382.724 16.9522 382.151 18.3075 381.005 19.421C379.858 20.5342 378.461 21.091 376.814 21.091ZM376.102 12.965V6H376.895V12.965H376.102ZM379.02 12.965V6.77389H379.821V12.965H379.02Z" fill="#76C1F5"/>
<path d="M8.56736 49.9483C7.47722 49.9483 6.45814 49.6956 5.50855 49.1903C4.55975 48.6848 3.79368 47.9812 3.21034 47.0794L0 42.0907L0.766087 41.3506L4.70657 43.8666V35.6528H5.55072V45.4253L1.48299 42.7883L3.928 46.6114C4.42076 47.3999 5.07983 48.0172 5.90524 48.4632C6.73146 48.9087 7.61858 49.1314 8.56661 49.1314C10.0706 49.1314 11.3529 48.625 12.4118 47.6121C13.4707 46.5981 14.0002 45.3583 14.0002 43.8927V36.0612H14.8452V43.8936C14.8452 45.5797 14.2352 47.0102 13.017 48.1856C11.798 49.3607 10.3151 49.9483 8.56736 49.9483ZM7.8091 41.371V34.019H8.65407V41.371H7.8091ZM10.9124 41.371V34.8359H11.7574V41.371H10.9124Z" fill="#76C1F5"/>
<path d="M371.322 81.9293C370.232 81.9293 369.213 81.6766 368.263 81.1713C367.314 80.6658 366.548 79.9622 365.965 79.0604L362.754 74.0717L363.52 73.3316L367.461 75.8476V67.6338H368.305V77.4063L364.237 74.7693L366.682 78.5924C367.175 79.3809 367.834 79.9982 368.66 80.4442C369.486 80.8897 370.373 81.1124 371.321 81.1124C372.825 81.1124 374.107 80.606 375.166 79.5931C376.225 78.5791 376.755 77.3393 376.755 75.8737V68.0422H377.6V75.8746C377.6 77.5607 376.99 78.9912 375.771 80.1666C374.552 81.3417 373.069 81.9293 371.322 81.9293ZM370.563 73.352V66H371.408V73.352H370.563ZM373.667 73.352V66.8169H374.512V73.352H373.667Z" fill="#76C1F5"/>
<path d="M64.8272 21.444C63.8018 21.444 62.8419 21.2047 61.949 20.7258C61.0553 20.247 60.3342 19.5804 59.7859 18.7261L56.7637 13.9999L57.4855 13.2987L61.1934 15.6824V7.90082H61.9887V17.1589L58.1594 14.6608L60.4608 18.2826C60.9244 19.0297 61.5447 19.6145 62.3217 20.037C63.0993 20.4591 63.9342 20.6701 64.8264 20.6701C66.2428 20.6701 67.4488 20.1902 68.4454 19.2307C69.442 18.27 69.9403 17.0954 69.9403 15.7071V8.28777H70.7356V15.7079C70.7356 17.3052 70.1623 18.6605 69.015 19.774C67.8685 20.8872 66.4721 21.444 64.8272 21.444ZM64.1142 13.318V6.35303H64.9094V13.318H64.1142ZM67.035 13.318V7.12692H67.8303V13.318H67.035Z" fill="#76C1F5"/>
<path d="M213.273 83.4845C212.246 83.4845 211.289 83.2447 210.393 82.7659C209.503 82.2871 208.784 81.6211 208.232 80.7663L205.21 76.0401L205.931 75.3393L209.635 77.7226V69.9413H210.437V79.1995L206.608 76.7012L208.908 80.3231C209.371 81.07 209.988 81.6551 210.768 82.0772C211.546 82.4993 212.378 82.7106 213.273 82.7106C214.685 82.7106 215.898 82.2304 216.89 81.2714C217.89 80.3103 218.39 79.1356 218.39 77.7475V70.3286H219.183V77.7482C219.183 79.3456 218.61 80.7011 217.463 81.814C216.317 82.9277 214.919 83.4845 213.273 83.4845ZM212.561 75.3585V68.3936H213.354V75.3585H212.561ZM215.478 75.3585V69.1675H216.273V75.3585H215.478Z" fill="#76C1F5"/>
<path d="M366.197 49.9916C371.116 49.4498 375.89 50.3713 379.823 54.1834C381.765 56.0656 385.779 61.3195 381.959 64.0421C380.592 65.0167 376.307 65.2997 377.047 61.9721C377.936 57.9706 381.812 59.4605 384.073 60.6783C386.91 62.2056 389.611 64.2159 392.574 65.6206C394.309 66.4431 395.984 67.7734 397.721 68.6998C400.315 70.0824 403.419 69.9138 406.179 69.9677C411.788 70.0773 417.293 69.958 422.838 68.8033C430.352 67.2388 437.887 63.8403 443.299 57.1592C447.129 52.4317 451.984 43.3769 448.66 36.6655C446.918 33.1467 443.935 29.0363 439.989 31.1281C435.968 33.2594 435.633 42.6331 441.164 40.1846C442.928 39.4036 446.564 35.4024 444.752 32.9135" stroke="#76C1F5" stroke-linecap="round" stroke-dasharray="6 6"/>
</svg>
