<svg width="59" height="59" viewBox="0 0 59 59" fill="none" xmlns="http://www.w3.org/2000/svg">
<rect x="1.1875" y="1.02844" width="57" height="57" rx="14.5" stroke="#BDBDBD"/>
<path d="M23.9375 32.5284H27.3875C27.6925 32.5284 27.985 32.402 28.2007 32.177C28.4163 31.9519 28.5375 31.6467 28.5375 31.3284C28.5375 31.0102 28.4163 30.705 28.2007 30.4799C27.985 30.2549 27.6925 30.1284 27.3875 30.1284H23.9375C23.6325 30.1284 23.34 30.2549 23.1243 30.4799C22.9087 30.705 22.7875 31.0102 22.7875 31.3284C22.7875 31.6467 22.9087 31.9519 23.1243 32.177C23.34 32.402 23.6325 32.5284 23.9375 32.5284ZM37.7375 20.5284H21.6375C20.7225 20.5284 19.845 20.9077 19.198 21.5829C18.551 22.258 18.1875 23.1737 18.1875 24.1284V34.9284C18.1875 35.8832 18.551 36.7989 19.198 37.474C19.845 38.1492 20.7225 38.5284 21.6375 38.5284H37.7375C38.6525 38.5284 39.53 38.1492 40.177 37.474C40.824 36.7989 41.1875 35.8832 41.1875 34.9284V24.1284C41.1875 23.1737 40.824 22.258 40.177 21.5829C39.53 20.9077 38.6525 20.5284 37.7375 20.5284ZM38.8875 34.9284C38.8875 35.2467 38.7663 35.5519 38.5507 35.777C38.335 36.002 38.0425 36.1284 37.7375 36.1284H21.6375C21.3325 36.1284 21.04 36.002 20.8243 35.777C20.6087 35.5519 20.4875 35.2467 20.4875 34.9284V27.7284H38.8875V34.9284ZM38.8875 25.3284H20.4875V24.1284C20.4875 23.8102 20.6087 23.505 20.8243 23.2799C21.04 23.0549 21.3325 22.9284 21.6375 22.9284H37.7375C38.0425 22.9284 38.335 23.0549 38.5507 23.2799C38.7663 23.505 38.8875 23.8102 38.8875 24.1284V25.3284Z" fill="#BDBDBD"/>
</svg>
