<svg width="134" height="30" viewBox="0 0 134 30" fill="none" xmlns="http://www.w3.org/2000/svg">
  <g clipPath="url(#clip0_1442_41)">
    <path
      d="M22.9748 5.15047C17.8613 4.78317 12.1655 4.78318 7.05191 5.15047C5.98148 5.22736 5.17043 6.047 5.08995 7.04886C4.83183 10.2618 4.79749 15.0754 5.03417 18.2851C5.11235 19.3453 6.04316 20.2553 7.30242 20.2553H11.25V25.125L7.31047 25.1222C3.69648 25.1222 0.45258 22.4435 0.172369 18.6436C-0.0827357 15.1842 -0.0475011 10.1202 0.230596 6.65848C0.509301 3.18919 3.29904 0.532477 6.70265 0.288002C12.0488 -0.0959997 17.978 -0.0960013 23.3241 0.288001C26.7277 0.532475 29.5175 3.18919 29.7962 6.65848C30.0743 10.1202 30.0621 15.1842 29.807 18.6436C29.5268 22.4435 26.2904 25.1331 22.6764 25.1331L18.7776 25.1303L11.25 30V25.125L18.7776 20.2553H22.677C23.9362 20.2553 24.867 19.3453 24.9452 18.2851C25.1819 15.0754 25.1949 10.2618 24.9368 7.04886C24.8563 6.047 24.0453 5.22736 22.9748 5.15047Z"
      fill="#E24802" />
    <path d="M37.4619 21.4044H49.2429V18.4464H41.0319V3.55444H37.4619V21.4044Z" fill="#1B1B20" />
    <path
      d="M50.9504 21.4045H54.4184V8.14449H50.9504V21.4045ZM50.6699 4.67649C50.6699 5.82399 51.5114 6.69099 52.6844 6.69099C53.8574 6.69099 54.6989 5.82399 54.6989 4.67649C54.6989 3.52899 53.8574 2.66199 52.6844 2.66199C51.5114 2.66199 50.6699 3.52899 50.6699 4.67649Z"
      fill="#1B1B20" />
    <path
      d="M68.0164 8.14453H64.5484L61.6924 17.86L58.8364 8.14453H55.3684L59.8819 21.4045H63.5029L68.0164 8.14453Z"
      fill="#1B1B20" />
    <path
      d="M74.2049 21.7105C77.1374 21.7105 79.5089 19.951 79.9679 17.5285H76.9334C76.6019 18.4465 75.6839 19.2115 74.2049 19.2115C72.1904 19.2115 71.3999 17.86 71.3999 16.3045V15.973H80.0699V13.6525C80.0699 10.465 78.0809 7.8385 74.1539 7.8385C70.1759 7.8385 68.0339 10.3885 68.0339 13.984V15.7945C68.0339 19.5175 70.4564 21.7105 74.2049 21.7105ZM71.3999 13.3975C71.3999 11.6125 72.1649 10.2865 74.1539 10.2865C76.0154 10.2865 76.8824 11.536 76.8824 13.1935V13.525H71.3999V13.3975Z"
      fill="#1B1B20" />
    <path
      d="M89.2869 21.7615C93.8004 21.7615 96.5799 18.7015 96.7584 15.055H93.4434C93.2139 17.0695 91.9389 18.829 89.2869 18.829C86.3034 18.829 85.0284 16.789 85.0284 13.933V11.026C85.0284 8.17001 86.3034 6.13001 89.2869 6.13001C91.9389 6.13001 93.2139 7.88951 93.4434 9.90401H96.7584C96.5799 6.25751 93.8004 3.19751 89.2869 3.19751C83.9064 3.19751 81.4839 6.64001 81.4839 11.2045V13.7545C81.4839 18.319 83.9064 21.7615 89.2869 21.7615Z"
      fill="#1B1B20" />
    <path
      d="M98.6438 21.4046H102.112V13.5506C102.112 11.7656 103.106 10.8476 104.662 10.8476C106.345 10.8476 107.084 11.9441 107.084 13.4741V21.4046H110.552V12.9131C110.552 9.77655 108.742 7.83855 105.86 7.83855C104.152 7.83855 102.8 8.57805 102.112 9.72555V2.78955H98.6438V21.4046Z"
      fill="#1B1B20" />
    <path
      d="M117.172 21.7105C118.702 21.7105 120.385 21.073 120.997 20.1805V21.4045H124.337V12.9385C124.337 9.853 122.068 7.8385 118.753 7.8385C115.897 7.8385 113.831 9.2155 113.066 11.791H116.279C116.636 11.077 117.376 10.5415 118.574 10.5415C120.002 10.5415 120.869 11.4595 120.869 12.6835V14.494C120.257 13.984 119.084 13.372 117.503 13.372C114.316 13.372 112.148 14.698 112.148 17.5795C112.148 20.155 114.188 21.7105 117.172 21.7105ZM118.064 19.4155C116.611 19.4155 115.514 18.7015 115.514 17.4775C115.514 16.2535 116.534 15.5905 118.166 15.5905C119.722 15.5905 120.869 16.279 120.869 17.452C120.869 18.574 119.594 19.4155 118.064 19.4155Z"
      fill="#1B1B20" />
    <path
      d="M130.818 21.4046H133.215V18.5996H131.812C130.894 18.5996 130.563 18.2426 130.563 17.3756V10.9496H133.393V8.14456H130.563V4.52356H127.069V8.14456H125.182V10.9496H127.069V17.6306C127.069 19.9766 128.268 21.4046 130.818 21.4046Z"
      fill="#1B1B20" />
  </g>
  <defs>
    <clipPath id="clip0_1442_41">
      <rect width="134" height="30" fill="white" />
    </clipPath>
  </defs>
</svg>