<svg width="20" height="21" viewBox="0 0 20 21" fill="none" xmlns="http://www.w3.org/2000/svg">
  <g clipPath="url(#clip0_665_495)">
    <path
      d="M6.45885 4.65968C6.39713 4.72385 6.34679 4.79806 6.30996 4.87912L6.30552 4.87468L0.0744045 18.9113L0.0805156 18.9175C-0.03504 19.1413 0.158293 19.5969 0.554404 19.9936C0.950516 20.3897 1.40607 20.583 1.62996 20.4675L1.63552 20.473L15.6722 14.2413L15.6677 14.2363C15.7494 14.1975 15.8244 14.1502 15.8872 14.0869C16.755 13.2191 15.3477 10.4052 12.745 7.8019C10.1411 5.19857 7.32718 3.7919 6.45885 4.65968Z"
      fill="#DD2E44" />
    <path
      d="M7.22218 7.16699L0.231071 18.5592L0.0744045 18.912L0.0805156 18.9181C-0.03504 19.142 0.158293 19.5975 0.554404 19.9942C0.683293 20.1231 0.817182 20.2209 0.948293 20.3037L9.4444 9.94477L7.22218 7.16699Z"
      fill="#EA596E" />
    <path
      d="M12.7844 7.75916C15.3788 10.3547 16.8194 13.1214 16.0005 13.9392C15.1822 14.758 12.4155 13.318 9.8194 10.7236C7.2244 8.12805 5.7844 5.36027 6.60273 4.54194C7.42162 3.7236 10.1883 5.1636 12.7844 7.75916Z"
      fill="#A0041E" />
    <path
      d="M10.3277 8.06104C10.2711 8.107 10.2058 8.14123 10.1358 8.16173C10.0658 8.18224 9.99245 8.18861 9.91995 8.18048C9.43773 8.12826 9.03217 7.96048 8.74828 7.69548C8.44773 7.41493 8.2994 7.03826 8.33995 6.66104C8.41106 5.99882 9.07551 5.39104 10.2083 5.51326C10.6488 5.56048 10.8455 5.41882 10.8522 5.35104C10.86 5.28382 10.6983 5.10326 10.2577 5.05548C9.77551 5.00326 9.36995 4.83548 9.08551 4.57048C8.78495 4.28993 8.63606 3.91326 8.67717 3.53604C8.7494 2.87382 9.41328 2.26604 10.545 2.38882C10.8661 2.42326 11.0355 2.35715 11.1072 2.31437C11.1644 2.27937 11.1872 2.24604 11.1894 2.2266C11.1961 2.15937 11.0366 1.97882 10.5949 1.93104C10.5224 1.92329 10.4521 1.90129 10.388 1.8663C10.324 1.83131 10.2674 1.78402 10.2217 1.72714C10.176 1.67026 10.1419 1.60491 10.1215 1.53484C10.1011 1.46477 10.0947 1.39136 10.1027 1.31882C10.1104 1.24627 10.1323 1.17595 10.1673 1.11191C10.2022 1.04786 10.2495 0.991349 10.3063 0.945613C10.3631 0.899876 10.4284 0.865817 10.4985 0.845393C10.5685 0.824968 10.6419 0.81858 10.7144 0.826596C11.8461 0.948262 12.3661 1.68326 12.2944 2.34604C12.2222 3.00937 11.5583 3.61604 10.4255 3.49437C10.1044 3.45937 9.93662 3.52604 9.8644 3.56882C9.80717 3.60326 9.78384 3.63715 9.78162 3.65604C9.7744 3.72382 9.93495 3.90382 10.3766 3.9516C11.5083 4.07382 12.0283 4.80826 11.9566 5.47104C11.885 6.13326 11.2211 6.74104 10.0888 6.61826C9.76773 6.58382 9.59884 6.65048 9.52662 6.69271C9.46884 6.72826 9.44662 6.7616 9.4444 6.78048C9.43717 6.84771 9.59773 7.02826 10.0388 7.07604C10.1481 7.08783 10.2514 7.13174 10.3356 7.20223C10.4199 7.27272 10.4814 7.36661 10.5123 7.47204C10.5432 7.57746 10.5422 7.68969 10.5094 7.79453C10.4765 7.89937 10.4133 7.99212 10.3277 8.06104Z"
      fill="#AA8DD8" />
    <path
      d="M17.0339 13.1979C18.13 12.8884 18.8861 13.3773 19.0661 14.019C19.2461 14.6601 18.8561 15.4717 17.7605 15.7801C17.3328 15.9001 17.2044 16.1045 17.2217 16.1695C17.2405 16.2351 17.4578 16.3429 17.8844 16.2223C18.98 15.914 19.7361 16.4029 19.9161 17.044C20.0972 17.6856 19.7061 18.4962 18.61 18.8051C18.1828 18.9251 18.0539 19.1301 18.0728 19.1951C18.0911 19.2601 18.3078 19.3679 18.735 19.2479C18.8059 19.2259 18.8804 19.2184 18.9542 19.2258C19.0281 19.2332 19.0997 19.2553 19.1648 19.2907C19.23 19.3262 19.2873 19.3744 19.3336 19.4324C19.3798 19.4904 19.4139 19.5571 19.434 19.6286C19.454 19.7 19.4596 19.7747 19.4502 19.8483C19.4409 19.9219 19.417 19.9929 19.3798 20.0571C19.3426 20.1213 19.2929 20.1774 19.2337 20.2221C19.1745 20.2668 19.1069 20.2992 19.035 20.3173C17.94 20.6256 17.1833 20.1379 17.0022 19.4956C16.8222 18.8545 17.2128 18.044 18.3094 17.7351C18.7372 17.6145 18.8655 17.4106 18.8467 17.3451C18.8289 17.2801 18.6122 17.1717 18.1855 17.2917C17.0889 17.6006 16.3333 17.1129 16.1528 16.4701C15.9722 15.829 16.3628 15.0184 17.4589 14.709C17.8855 14.5895 18.0139 14.384 17.9961 14.3195C17.9772 14.254 17.7611 14.1462 17.3339 14.2662C17.2625 14.2902 17.1869 14.2995 17.1118 14.2935C17.0367 14.2874 16.9636 14.2661 16.897 14.2309C16.8304 14.1957 16.7716 14.1473 16.7243 14.0887C16.6769 14.0301 16.642 13.9624 16.6216 13.8899C16.6013 13.8174 16.5959 13.7414 16.6058 13.6667C16.6157 13.592 16.6407 13.5201 16.6792 13.4554C16.7178 13.3907 16.7691 13.3344 16.8301 13.2902C16.891 13.2459 16.9604 13.2145 17.0339 13.1979Z"
      fill="#77B255" />
    <path
      d="M12.7784 11.6996C12.6633 11.6995 12.5512 11.6636 12.4573 11.597C12.3635 11.5305 12.2926 11.4364 12.2545 11.3279C12.2163 11.2194 12.2128 11.1017 12.2443 10.991C12.2759 10.8804 12.3409 10.7823 12.4306 10.7102C12.5517 10.6129 15.4406 8.34405 19.5234 8.92794C19.5972 8.93629 19.6687 8.95938 19.7334 8.99584C19.7982 9.0323 19.855 9.08139 19.9005 9.1402C19.946 9.19901 19.9792 9.26635 19.9981 9.33822C20.0171 9.41009 20.0214 9.48504 20.0109 9.55863C20.0004 9.63221 19.9752 9.70294 19.9369 9.76661C19.8985 9.83029 19.8478 9.88562 19.7876 9.92933C19.7275 9.97304 19.6592 10.0042 19.5868 10.0211C19.5144 10.0379 19.4394 10.0401 19.3661 10.0274C15.7589 9.51516 13.1511 11.5574 13.1256 11.5779C13.0271 11.6568 12.9046 11.6997 12.7784 11.6996Z"
      fill="#AA8DD8" />
    <path
      d="M3.19672 9.38894C3.11013 9.38894 3.02473 9.36871 2.94735 9.32985C2.86997 9.29098 2.80274 9.23457 2.75103 9.16511C2.69933 9.09565 2.66458 9.01506 2.64955 8.92978C2.63453 8.8445 2.63964 8.75689 2.6645 8.67394C3.29394 6.57783 3.8645 3.23283 3.16339 2.36061C3.08505 2.26172 2.96672 2.16449 2.69561 2.18505C2.1745 2.22505 2.22394 3.32449 2.2245 3.33561C2.23155 3.40921 2.22385 3.48347 2.20183 3.55406C2.17981 3.62464 2.14393 3.69012 2.09628 3.74666C2.04863 3.80319 1.99017 3.84965 1.92433 3.8833C1.8585 3.91695 1.78661 3.93713 1.71287 3.94264C1.63914 3.94815 1.56505 3.93888 1.49495 3.91539C1.42484 3.89189 1.36013 3.85464 1.3046 3.80581C1.24908 3.75699 1.20386 3.69757 1.1716 3.63104C1.13934 3.56451 1.12068 3.49222 1.11672 3.41838C1.0595 2.65227 1.29783 1.17672 2.61227 1.07727C3.19894 1.03283 3.68616 1.23672 4.03005 1.66449C5.34727 3.30394 4.01005 8.05672 3.72894 8.99338C3.69454 9.10777 3.62419 9.20802 3.52832 9.27928C3.43245 9.35053 3.31617 9.38898 3.19672 9.38894Z"
      fill="#77B255" />
    <path
      d="M14.1667 6.611C14.6269 6.611 15 6.23791 15 5.77767C15 5.31743 14.6269 4.94434 14.1667 4.94434C13.7065 4.94434 13.3334 5.31743 13.3334 5.77767C13.3334 6.23791 13.7065 6.611 14.1667 6.611Z"
      fill="#5C913B" />
    <path
      d="M1.11111 11.6109C1.72476 11.6109 2.22222 11.1134 2.22222 10.4998C2.22222 9.88613 1.72476 9.38867 1.11111 9.38867C0.497461 9.38867 0 9.88613 0 10.4998C0 11.1134 0.497461 11.6109 1.11111 11.6109Z"
      fill="#9266CC" />
    <path
      d="M18.0555 12.1667C18.5157 12.1667 18.8888 11.7936 18.8888 11.3333C18.8888 10.8731 18.5157 10.5 18.0555 10.5C17.5953 10.5 17.2222 10.8731 17.2222 11.3333C17.2222 11.7936 17.5953 12.1667 18.0555 12.1667Z"
      fill="#5C913B" />
    <path
      d="M13.0555 18.8337C13.5157 18.8337 13.8888 18.4606 13.8888 18.0003C13.8888 17.5401 13.5157 17.167 13.0555 17.167C12.5953 17.167 12.2222 17.5401 12.2222 18.0003C12.2222 18.4606 12.5953 18.8337 13.0555 18.8337Z"
      fill="#5C913B" />
    <path
      d="M15.5556 3.83355C16.1692 3.83355 16.6667 3.33609 16.6667 2.72244C16.6667 2.10879 16.1692 1.61133 15.5556 1.61133C14.9419 1.61133 14.4445 2.10879 14.4445 2.72244C14.4445 3.33609 14.9419 3.83355 15.5556 3.83355Z"
      fill="#FFCC4D" />
    <path
      d="M18.0555 6.05534C18.5157 6.05534 18.8888 5.68224 18.8888 5.22201C18.8888 4.76177 18.5157 4.38867 18.0555 4.38867C17.5953 4.38867 17.2222 4.76177 17.2222 5.22201C17.2222 5.68224 17.5953 6.05534 18.0555 6.05534Z"
      fill="#FFCC4D" />
    <path
      d="M16.3889 8.27799C16.8491 8.27799 17.2222 7.9049 17.2222 7.44466C17.2222 6.98442 16.8491 6.61133 16.3889 6.61133C15.9286 6.61133 15.5555 6.98442 15.5555 7.44466C15.5555 7.9049 15.9286 8.27799 16.3889 8.27799Z"
      fill="#FFCC4D" />
    <path
      d="M4.16671 14.3893C4.62694 14.3893 5.00004 14.0162 5.00004 13.556C5.00004 13.0958 4.62694 12.7227 4.16671 12.7227C3.70647 12.7227 3.33337 13.0958 3.33337 13.556C3.33337 14.0162 3.70647 14.3893 4.16671 14.3893Z"
      fill="#FFCC4D" />
  </g>
  <defs>
    <clipPath id="clip0_665_495">
      <rect width="20" height="20" fill="white" transform="translate(0 0.5)" />
    </clipPath>
  </defs>
</svg>