<svg width="30" height="30" viewBox="0 0 30 30" fill="none" xmlns="http://www.w3.org/2000/svg">
<path d="M22.9748 5.15047C17.8613 4.78317 12.1655 4.78318 7.05191 5.15047C5.98148 5.22736 5.17043 6.047 5.08995 7.04886C4.83183 10.2618 4.79749 15.0754 5.03417 18.2851C5.11235 19.3453 6.04316 20.2553 7.30242 20.2553H11.25V25.125L7.31047 25.1222C3.69648 25.1222 0.45258 22.4435 0.172369 18.6436C-0.0827357 15.1842 -0.0475011 10.1202 0.230596 6.65848C0.509301 3.18919 3.29904 0.532477 6.70265 0.288002C12.0488 -0.0959997 17.978 -0.0960013 23.3241 0.288001C26.7277 0.532475 29.5175 3.18919 29.7962 6.65848C30.0743 10.1202 30.0621 15.1842 29.807 18.6436C29.5268 22.4435 26.2904 25.1331 22.6764 25.1331L18.7776 25.1303L11.25 30V25.125L18.7776 20.2553H22.677C23.9362 20.2553 24.867 19.3453 24.9452 18.2851C25.1819 15.0754 25.1949 10.2618 24.9368 7.04886C24.8563 6.047 24.0453 5.22736 22.9748 5.15047Z" fill="#00AA63"/>
</svg>
